# xmcd
#
# Track frame offsets:
#	150
#	15730
#	34432
#	50430
#
# Disc length: 883 seconds
#
# Revision: 1
# Processed by: cddbd v1.5.2PL0 Copyright (c) Steve Scherf et al.
# Submitted via: EasyCDDAExtractor 11.0.2.1
#
DISCID=2e037104
DTITLE=Say Colour - It's Summer In My Heart (1999)
DYEAR=1999
DGENRE=Indie
TTITLE0=It's Summer In My Heart (Radio Edit)
TTITLE1=It's Summer In My Heart (Extended Summer Mix)
TTITLE2=It's Summer In My Heart (Instrumental Sunshine Mix)
TTITLE3=It's Summer In My Heart (Instrumental Mix)
EXTD=
EXTT0=
EXTT1=
EXTT2=
EXTT3=
PLAYORDER=
